<svg xmlns="http://www.w3.org/2000/svg" xmlns:xlink="http://www.w3.org/1999/xlink" width="500" zoomAndPan="magnify" viewBox="0 0 375 374.999991" height="500" preserveAspectRatio="xMidYMid meet" version="1.0"><defs><g/><clipPath id="9d8576181d"><path d="M 45.304688 22.039062 L 329.695312 22.039062 L 329.695312 353 L 45.304688 353 Z M 45.304688 22.039062 " clip-rule="nonzero"/></clipPath><clipPath id="4527e1c2f3"><path d="M 187.5 22.039062 L 329.695312 104.769531 L 329.695312 270.230469 L 187.5 352.960938 L 45.304688 270.230469 L 45.304688 104.769531 Z M 187.5 22.039062 " clip-rule="nonzero"/></clipPath><clipPath id="85d9dc5526"><path d="M 45.304688 22.039062 L 329.554688 22.039062 L 329.554688 352.789062 L 45.304688 352.789062 Z M 45.304688 22.039062 " clip-rule="nonzero"/></clipPath><clipPath id="6897e7679a"><path d="M 187.496094 22.039062 L 329.683594 104.765625 L 329.683594 270.222656 L 187.496094 352.949219 L 45.304688 270.222656 L 45.304688 104.765625 Z M 187.496094 22.039062 " clip-rule="nonzero"/></clipPath><clipPath id="cca37414cb"><path d="M 114.101562 57.648438 L 261 57.648438 L 261 186.648438 L 114.101562 186.648438 Z M 114.101562 57.648438 " clip-rule="nonzero"/></clipPath><clipPath id="c99aa5acd7"><path d="M 178 159 L 244 159 L 244 243 L 178 243 Z M 178 159 " clip-rule="nonzero"/></clipPath><clipPath id="dfe1ed1e9a"><path d="M 199.691406 151.824219 L 252.199219 177.609375 L 218.152344 246.949219 L 165.640625 221.164062 Z M 199.691406 151.824219 " clip-rule="nonzero"/></clipPath><clipPath id="b5bfd2c396"><path d="M 197.105469 150.542969 L 254.328125 178.640625 L 216.976562 254.714844 L 159.75 226.617188 Z M 197.105469 150.542969 " clip-rule="nonzero"/></clipPath></defs><g clip-path="url(#9d8576181d)"><g clip-path="url(#4527e1c2f3)"><path fill="#4169e1" d="M 45.304688 22.039062 L 329.695312 22.039062 L 329.695312 353.082031 L 45.304688 353.082031 Z M 45.304688 22.039062 " fill-opacity="1" fill-rule="nonzero"/></g></g><g clip-path="url(#85d9dc5526)"><g clip-path="url(#6897e7679a)"><path stroke-linecap="butt" transform="matrix(0.75, 0, 0, 0.75, 45.305505, 22.037526)" fill="none" stroke-linejoin="miter" d="M 189.587464 0.00204932 L 379.17081 110.30414 L 379.17081 330.913529 L 189.587464 441.21562 L -0.00108963 330.913529 L -0.00108963 110.30414 Z M 189.587464 0.00204932 " stroke="#000000" stroke-width="16" stroke-opacity="1" stroke-miterlimit="4"/></g></g><g clip-path="url(#cca37414cb)"><path fill="#ffffff" d="M 258.4375 109.457031 C 256.847656 105.480469 254.5 101.824219 251.429688 98.808594 C 250.761719 98.152344 250.003906 97.511719 249.175781 96.941406 C 249.160156 92.402344 248.09375 87.945312 246.050781 83.980469 C 243.996094 79.992188 240.96875 76.492188 237.058594 73.957031 C 234.65625 72.398438 231.945312 71.101562 229.101562 70.179688 C 226.261719 69.273438 223.285156 68.738281 220.308594 68.738281 C 219.265625 68.738281 218.210938 68.808594 217.183594 68.941406 C 217.160156 68.898438 217.132812 68.859375 217.105469 68.820312 C 215.570312 66.710938 213.554688 64.789062 211.511719 63.203125 C 210.484375 62.414062 209.457031 61.707031 208.457031 61.121094 C 207.457031 60.53125 206.507812 60.039062 205.640625 59.691406 C 202.117188 58.265625 198.449219 57.648438 194.777344 57.648438 C 190.214844 57.648438 185.636719 58.597656 181.3125 60.105469 C 180.457031 60.398438 179.511719 60.785156 178.5625 61.265625 C 174.398438 59.332031 169.886719 58.382812 165.390625 58.382812 C 159.597656 58.382812 153.804688 59.945312 148.722656 62.976562 C 146.640625 64.214844 143.582031 66.269531 141.007812 68.765625 C 139.726562 70.019531 138.550781 71.382812 137.699219 72.835938 C 137.605469 72.996094 137.511719 73.15625 137.429688 73.332031 C 134.910156 73.636719 132.519531 74.453125 130.332031 75.652344 C 126.207031 77.921875 122.765625 81.539062 120.347656 85.78125 C 117.933594 90.027344 116.53125 94.882812 116.53125 99.660156 C 116.53125 101.757812 116.800781 103.824219 117.371094 105.8125 C 117.199219 105.988281 117.039062 106.175781 116.890625 106.363281 C 115.917969 107.550781 115.222656 108.925781 114.769531 110.40625 C 114.316406 111.875 114.101562 113.449219 114.101562 115.035156 C 114.101562 117.890625 114.785156 120.828125 116.011719 123.457031 C 116.625 124.765625 117.371094 125.992188 118.253906 127.101562 C 119.132812 128.195312 120.136719 129.167969 121.257812 129.945312 C 122.84375 131.050781 124.554688 131.863281 126.339844 132.425781 C 128.128906 132.984375 129.984375 133.292969 131.867188 133.375 C 132.238281 133.386719 132.558594 133.09375 132.574219 132.71875 C 132.585938 132.34375 132.292969 132.023438 131.917969 132.011719 C 130.15625 131.945312 128.410156 131.652344 126.753906 131.132812 C 125.085938 130.609375 123.5 129.851562 122.03125 128.824219 C 121.03125 128.128906 120.121094 127.261719 119.320312 126.246094 C 118.121094 124.738281 117.144531 122.921875 116.492188 121 C 115.824219 119.066406 115.476562 117.023438 115.476562 115.050781 C 115.476562 113.742188 115.636719 112.460938 115.957031 111.257812 C 116.199219 110.367188 116.53125 109.511719 116.972656 108.722656 C 117.238281 108.230469 117.546875 107.761719 117.894531 107.335938 C 118.46875 108.882812 119.253906 110.367188 120.242188 111.738281 C 120.976562 112.765625 122.03125 113.609375 123.21875 114.207031 C 124.40625 114.808594 125.742188 115.15625 127.0625 115.15625 C 127.703125 115.15625 128.355469 115.078125 128.96875 114.890625 C 129.597656 114.703125 130.183594 114.421875 130.730469 114.035156 C 131.519531 113.460938 132.105469 112.726562 132.480469 111.925781 C 132.855469 111.113281 133.027344 110.246094 133.027344 109.363281 C 133.027344 108.484375 132.855469 107.601562 132.535156 106.789062 C 132.214844 105.960938 131.746094 105.199219 131.132812 104.558594 C 130.386719 103.773438 129.476562 103.210938 128.488281 102.839844 C 127.503906 102.464844 126.449219 102.292969 125.40625 102.292969 C 124.726562 102.292969 124.058594 102.371094 123.417969 102.503906 C 121.804688 102.863281 120.402344 103.480469 119.214844 104.28125 C 118.972656 104.441406 118.746094 104.613281 118.519531 104.785156 C 118.105469 103.132812 117.90625 101.410156 117.90625 99.675781 C 117.90625 96.671875 118.492188 93.601562 119.574219 90.695312 C 121.191406 86.328125 123.914062 82.3125 127.34375 79.390625 C 129.0625 77.933594 130.957031 76.734375 132.988281 75.90625 C 134.214844 75.398438 135.484375 75.039062 136.789062 74.8125 C 136.765625 74.90625 136.722656 75 136.699219 75.09375 C 136.457031 75.867188 136.308594 76.652344 136.308594 77.441406 C 136.308594 78.136719 136.417969 78.84375 136.644531 79.535156 C 136.871094 80.230469 137.230469 80.925781 137.710938 81.59375 C 138.324219 82.445312 139.140625 83.113281 140.074219 83.582031 C 140.996094 84.046875 142.023438 84.300781 143.0625 84.300781 C 143.304688 84.300781 143.53125 84.289062 143.769531 84.261719 C 144.382812 84.195312 145.011719 84.019531 145.585938 83.742188 C 146.160156 83.460938 146.691406 83.058594 147.105469 82.527344 C 147.402344 82.140625 147.613281 81.710938 147.761719 81.257812 C 147.894531 80.816406 147.960938 80.351562 147.960938 79.882812 C 147.960938 78.9375 147.707031 78.003906 147.253906 77.1875 C 146.878906 76.507812 146.386719 75.921875 145.824219 75.414062 C 144.984375 74.664062 143.972656 74.105469 142.902344 73.746094 C 141.835938 73.382812 140.6875 73.199219 139.566406 73.199219 C 139.511719 73.199219 139.460938 73.199219 139.394531 73.199219 C 139.285156 73.199219 139.179688 73.199219 139.085938 73.210938 C 139.328125 72.835938 139.59375 72.449219 139.875 72.089844 C 141.167969 70.410156 142.890625 68.808594 144.625 67.445312 C 146.359375 66.085938 148.109375 64.949219 149.429688 64.164062 C 154.273438 61.238281 159.824219 59.746094 165.378906 59.746094 C 169.355469 59.746094 173.316406 60.519531 177.042969 62.082031 C 176.574219 62.347656 176.121094 62.640625 175.679688 62.949219 C 174.503906 63.777344 173.425781 64.722656 172.609375 65.804688 C 172.210938 66.351562 171.875 66.925781 171.636719 67.539062 C 171.410156 68.152344 171.277344 68.808594 171.277344 69.472656 C 171.277344 70.195312 171.421875 70.929688 171.757812 71.664062 C 172.078125 72.398438 172.570312 73.132812 173.238281 73.863281 C 173.890625 74.585938 174.707031 75.132812 175.585938 75.507812 C 176.46875 75.878906 177.429688 76.066406 178.375 76.066406 C 179.402344 76.066406 180.429688 75.839844 181.367188 75.371094 C 182.511719 74.800781 183.449219 73.878906 184.101562 72.796875 C 184.753906 71.714844 185.117188 70.460938 185.117188 69.195312 C 185.117188 68.765625 185.074219 68.351562 184.996094 67.925781 C 184.863281 67.285156 184.648438 66.683594 184.355469 66.109375 C 183.914062 65.257812 183.328125 64.496094 182.632812 63.84375 C 181.953125 63.1875 181.164062 62.628906 180.351562 62.175781 C 180.269531 62.132812 180.175781 62.082031 180.097656 62.039062 C 180.671875 61.785156 181.230469 61.574219 181.753906 61.386719 C 185.96875 59.917969 190.386719 59.011719 194.765625 59.011719 C 198.273438 59.011719 201.769531 59.597656 205.105469 60.960938 C 206.308594 61.453125 207.761719 62.253906 209.257812 63.269531 C 211.5 64.804688 213.820312 66.84375 215.570312 69.074219 C 215.609375 69.113281 215.636719 69.152344 215.664062 69.207031 C 213.703125 69.609375 211.792969 70.289062 209.976562 71.277344 C 208.925781 71.851562 207.976562 72.652344 207.242188 73.609375 C 206.507812 74.570312 205.976562 75.691406 205.789062 76.90625 C 205.722656 77.308594 205.695312 77.695312 205.695312 78.070312 C 205.695312 78.988281 205.882812 79.832031 206.226562 80.5625 C 206.480469 81.113281 206.828125 81.59375 207.242188 82.019531 C 207.855469 82.644531 208.605469 83.113281 209.417969 83.421875 C 210.230469 83.726562 211.113281 83.886719 212.007812 83.886719 C 212.886719 83.886719 213.78125 83.742188 214.636719 83.421875 C 215.492188 83.101562 216.289062 82.621094 216.984375 81.980469 C 217.960938 81.070312 218.679688 80.082031 219.132812 79.070312 C 219.601562 78.042969 219.800781 76.988281 219.800781 75.933594 C 219.800781 75.039062 219.652344 74.144531 219.386719 73.277344 C 219.082031 72.238281 218.601562 71.222656 218.011719 70.234375 C 218.773438 70.15625 219.535156 70.113281 220.292969 70.113281 C 223.097656 70.113281 225.941406 70.609375 228.675781 71.488281 C 231.398438 72.355469 234 73.609375 236.308594 75.105469 C 240.019531 77.507812 242.890625 80.804688 244.835938 84.609375 C 246.640625 88.117188 247.652344 92.054688 247.785156 96.070312 C 247.386719 95.84375 246.972656 95.617188 246.546875 95.417969 C 245.625 94.976562 244.664062 94.617188 243.691406 94.378906 C 242.714844 94.125 241.726562 93.988281 240.742188 93.988281 C 240.019531 93.988281 239.300781 94.070312 238.605469 94.230469 C 237.5625 94.484375 236.5625 94.9375 235.65625 95.644531 C 234.761719 96.339844 233.960938 97.285156 233.320312 98.472656 C 232.707031 99.59375 232.414062 100.824219 232.414062 102.023438 C 232.414062 103.238281 232.707031 104.425781 233.28125 105.492188 C 233.855469 106.5625 234.707031 107.496094 235.800781 108.175781 C 236.46875 108.589844 237.148438 108.898438 237.816406 109.085938 C 238.5 109.285156 239.164062 109.378906 239.832031 109.378906 C 241.035156 109.378906 242.179688 109.070312 243.222656 108.550781 C 244.785156 107.761719 246.132812 106.496094 247.132812 105 C 248.132812 103.492188 248.800781 101.757812 248.988281 99.980469 C 249.042969 99.527344 249.066406 99.0625 249.09375 98.609375 C 249.574219 98.980469 250.027344 99.382812 250.441406 99.78125 C 253.367188 102.652344 255.621094 106.160156 257.140625 109.976562 C 258.664062 113.796875 259.449219 117.917969 259.449219 122.042969 C 259.449219 123.109375 259.398438 124.179688 259.289062 125.246094 C 259.183594 126.261719 258.996094 127.3125 258.71875 128.328125 C 258.289062 129.851562 257.621094 131.292969 256.714844 132.480469 C 256.261719 133.066406 255.742188 133.601562 255.152344 134.054688 C 254.566406 134.507812 253.914062 134.867188 253.164062 135.136719 C 251.925781 135.589844 250.683594 135.777344 249.429688 135.777344 C 248.375 135.777344 247.320312 135.628906 246.265625 135.375 C 244.691406 135 243.140625 134.359375 241.648438 133.601562 C 240.152344 132.824219 238.710938 131.917969 237.363281 130.996094 C 230.332031 126.152344 223.417969 120.546875 215.996094 115.929688 C 212.289062 113.621094 208.445312 111.566406 204.398438 109.976562 C 200.542969 108.46875 196.484375 107.390625 192.1875 106.921875 C 193.109375 104.359375 194.335938 101.929688 195.859375 99.742188 C 196.832031 100.222656 197.820312 100.691406 198.808594 101.101562 C 203.117188 102.90625 207.667969 104.027344 212.300781 104.027344 C 213.59375 104.027344 214.890625 103.933594 216.199219 103.757812 C 217.144531 103.625 218.121094 103.414062 219.066406 103.09375 C 220.480469 102.625 221.855469 101.945312 222.964844 100.996094 C 223.523438 100.515625 224.019531 99.980469 224.40625 99.367188 C 224.804688 98.753906 225.113281 98.074219 225.285156 97.3125 C 225.394531 96.847656 225.445312 96.390625 225.445312 95.925781 C 225.445312 95.246094 225.339844 94.578125 225.140625 93.9375 C 224.84375 92.976562 224.351562 92.070312 223.710938 91.28125 C 223.082031 90.492188 222.308594 89.800781 221.441406 89.277344 C 220.453125 88.679688 219.386719 88.277344 218.292969 88.023438 C 217.199219 87.769531 216.0625 87.664062 214.941406 87.664062 C 214.167969 87.664062 213.394531 87.71875 212.632812 87.796875 C 209.792969 88.132812 207.136719 88.945312 204.734375 90.148438 C 201.117188 91.949219 198.046875 94.605469 195.605469 97.808594 C 195.550781 97.875 195.5 97.941406 195.457031 98.007812 C 192.683594 96.539062 190.027344 94.816406 187.542969 92.960938 C 185.941406 91.761719 184.367188 90.492188 182.738281 89.265625 C 181.125 88.039062 179.457031 86.835938 177.683594 85.796875 C 176 84.808594 174.238281 84.019531 172.4375 83.472656 C 170.636719 82.925781 168.78125 82.632812 166.898438 82.632812 C 165.082031 82.632812 163.242188 82.914062 161.386719 83.5 C 157.355469 84.78125 153.644531 87.117188 150.605469 90.132812 C 147.5625 93.148438 145.183594 96.832031 143.824219 100.835938 C 143.382812 102.132812 143.050781 103.574219 143.050781 105.015625 C 143.050781 105.707031 143.128906 106.414062 143.316406 107.082031 C 143.503906 107.761719 143.8125 108.402344 144.265625 108.992188 C 144.382812 109.152344 144.519531 109.3125 144.652344 109.457031 C 144.34375 109.886719 144.050781 110.296875 143.769531 110.671875 C 142.15625 112.914062 140.714844 115.398438 139.6875 118.027344 C 138.644531 120.65625 138.019531 123.445312 138.019531 126.285156 C 138.019531 127.753906 138.191406 129.222656 138.566406 130.691406 C 139.019531 132.503906 139.742188 134.148438 140.675781 135.589844 C 142.074219 137.765625 143.957031 139.511719 146.144531 140.808594 C 148.335938 142.113281 150.84375 142.980469 153.5 143.421875 C 155.140625 143.6875 156.78125 143.808594 158.425781 143.808594 C 160.292969 143.808594 162.160156 143.664062 164.03125 143.449219 C 167.058594 143.101562 169.96875 142.339844 172.851562 141.675781 C 175.734375 141.007812 178.578125 140.445312 181.5 140.445312 C 181.886719 140.445312 182.273438 140.460938 182.660156 140.472656 C 184.410156 140.566406 186.128906 140.660156 187.839844 140.792969 C 187.972656 142.0625 188.292969 143.316406 188.730469 144.542969 C 189.652344 147.078125 191.121094 149.480469 192.828125 151.628906 C 194.539062 153.777344 196.460938 155.648438 198.300781 157.101562 C 199.941406 158.394531 201.636719 159.609375 203.277344 160.851562 C 204.921875 162.09375 206.496094 163.375 207.910156 164.816406 C 209.777344 166.710938 211.058594 168.765625 211.886719 170.980469 C 212.714844 173.195312 213.089844 175.570312 213.089844 178.09375 C 213.089844 178.976562 213.046875 179.882812 212.953125 180.804688 C 212.835938 182.125 212.378906 183.699219 211.648438 185.40625 C 211.5 185.753906 211.660156 186.15625 212.007812 186.300781 C 212.355469 186.449219 212.753906 186.289062 212.902344 185.941406 C 213.675781 184.140625 214.167969 182.445312 214.316406 180.925781 C 214.410156 179.964844 214.449219 179.015625 214.449219 178.082031 C 214.449219 175.425781 214.0625 172.875 213.167969 170.488281 C 212.273438 168.097656 210.871094 165.871094 208.882812 163.839844 C 207.402344 162.332031 205.761719 161.011719 204.105469 159.757812 C 202.4375 158.503906 200.742188 157.300781 199.140625 156.019531 C 196.804688 154.179688 194.269531 151.5625 192.347656 148.640625 C 191.386719 147.171875 190.574219 145.636719 190.011719 144.0625 C 189.625 143.007812 189.359375 141.953125 189.226562 140.898438 C 190.253906 141.007812 191.28125 141.140625 192.28125 141.300781 C 195.378906 141.808594 198.339844 142.675781 201.078125 144.222656 C 204.253906 146.023438 207.457031 148.082031 210.820312 149.734375 C 212.5 150.5625 214.222656 151.28125 215.996094 151.816406 C 217.773438 152.351562 219.613281 152.699219 221.523438 152.75 C 221.710938 152.75 221.910156 152.765625 222.097656 152.765625 C 223.484375 152.765625 224.914062 152.589844 226.261719 152.203125 C 227.609375 151.804688 228.902344 151.191406 230.023438 150.296875 C 231.304688 149.269531 232.265625 147.933594 232.894531 146.464844 C 233.519531 144.996094 233.839844 143.367188 233.839844 141.753906 C 233.839844 140.085938 233.507812 138.40625 232.851562 136.871094 C 231.890625 134.628906 230.34375 132.734375 228.488281 131.210938 C 226.632812 129.691406 224.457031 128.527344 222.191406 127.769531 C 221.027344 127.382812 219.839844 127.234375 218.652344 127.234375 C 216.824219 127.234375 214.996094 127.566406 213.195312 127.929688 C 211.394531 128.273438 209.632812 128.636719 207.964844 128.714844 C 207.5625 128.730469 207.148438 128.742188 206.734375 128.742188 C 205.746094 128.742188 204.695312 128.703125 203.625 128.664062 C 202.546875 128.621094 201.4375 128.570312 200.34375 128.570312 C 198.421875 128.570312 196.5 128.703125 194.738281 129.222656 C 193.855469 129.488281 193.015625 129.851562 192.242188 130.34375 C 191.46875 130.835938 190.773438 131.476562 190.171875 132.265625 C 189.332031 133.386719 188.730469 134.546875 188.34375 135.75 C 187.957031 136.9375 187.785156 138.164062 187.785156 139.378906 C 187.785156 139.390625 187.785156 139.417969 187.785156 139.433594 C 186.117188 139.296875 184.433594 139.207031 182.753906 139.125 C 182.339844 139.097656 181.925781 139.097656 181.511719 139.097656 C 178.414062 139.097656 175.464844 139.699219 172.570312 140.367188 C 169.660156 141.035156 166.804688 141.78125 163.910156 142.113281 C 162.082031 142.328125 160.265625 142.460938 158.464844 142.460938 C 156.890625 142.460938 155.328125 142.355469 153.765625 142.101562 C 150.417969 141.554688 147.375 140.273438 144.972656 138.324219 C 143.769531 137.351562 142.714844 136.1875 141.863281 134.867188 C 141.007812 133.546875 140.355469 132.050781 139.925781 130.371094 C 139.582031 129.023438 139.433594 127.660156 139.433594 126.300781 C 139.433594 123.671875 140.019531 121.042969 141.007812 118.53125 C 141.996094 116.023438 143.371094 113.636719 144.933594 111.472656 C 145.183594 111.125 145.453125 110.753906 145.71875 110.378906 C 145.734375 110.378906 145.734375 110.390625 145.746094 110.390625 C 146.546875 110.980469 147.441406 111.378906 148.402344 111.644531 C 149.363281 111.914062 150.375 112.019531 151.40625 112.019531 C 153.460938 112.019531 155.59375 111.566406 157.503906 110.832031 C 158.464844 110.457031 159.359375 110.03125 160.171875 109.539062 C 160.988281 109.042969 161.707031 108.496094 162.308594 107.921875 C 162.960938 107.28125 163.480469 106.535156 163.84375 105.746094 C 164.203125 104.960938 164.402344 104.121094 164.402344 103.277344 C 164.402344 102.8125 164.335938 102.34375 164.203125 101.902344 C 163.988281 101.238281 163.617188 100.609375 163.054688 100.101562 C 162.496094 99.59375 161.773438 99.207031 160.878906 98.980469 C 160.144531 98.78125 159.425781 98.703125 158.71875 98.703125 C 157.878906 98.703125 157.0625 98.820312 156.277344 99.046875 C 154.902344 99.449219 153.605469 100.140625 152.390625 101.023438 C 150.578125 102.34375 148.949219 104.054688 147.519531 105.789062 C 146.8125 106.65625 146.144531 107.507812 145.53125 108.335938 C 145.492188 108.285156 145.453125 108.230469 145.414062 108.175781 C 145.078125 107.734375 144.839844 107.242188 144.691406 106.707031 C 144.542969 106.175781 144.464844 105.601562 144.464844 105.011719 C 144.464844 103.800781 144.757812 102.476562 145.160156 101.277344 C 146.441406 97.5 148.707031 93.976562 151.605469 91.109375 C 154.5 88.238281 158.039062 86.007812 161.855469 84.808594 C 163.5625 84.261719 165.269531 84.007812 166.953125 84.007812 C 168.6875 84.007812 170.410156 84.273438 172.101562 84.78125 C 173.785156 85.289062 175.441406 86.035156 177.054688 86.96875 C 178.761719 87.972656 180.378906 89.132812 181.980469 90.347656 C 183.582031 91.5625 185.15625 92.828125 186.785156 94.058594 C 189.265625 95.910156 191.933594 97.648438 194.710938 99.128906 C 193.109375 101.476562 191.816406 104.078125 190.867188 106.816406 C 189.761719 106.734375 188.652344 106.695312 187.542969 106.695312 C 183.3125 106.695312 179.082031 107.296875 175.054688 108.511719 C 171.023438 109.726562 167.179688 111.566406 163.761719 114.0625 C 162.613281 114.890625 161.492188 115.835938 160.53125 116.945312 C 160.050781 117.492188 159.625 118.078125 159.25 118.71875 C 158.878906 119.347656 158.585938 120.027344 158.371094 120.75 C 158.144531 121.507812 158.050781 122.269531 158.050781 123.03125 C 158.050781 124.058594 158.238281 125.070312 158.570312 126.03125 C 159.078125 127.472656 159.917969 128.824219 160.988281 129.957031 C 162.054688 131.089844 163.347656 132.011719 164.789062 132.625 C 166.550781 133.359375 168.421875 133.679688 170.289062 133.679688 C 173.183594 133.679688 176.082031 132.917969 178.710938 131.773438 C 180.40625 131.023438 182.046875 130.089844 183.527344 128.929688 C 185.007812 127.78125 186.316406 126.40625 187.316406 124.804688 C 188.078125 123.578125 188.640625 122.296875 189.066406 120.988281 C 189.707031 119.011719 190.066406 116.984375 190.402344 114.96875 C 190.734375 112.953125 191.054688 110.964844 191.589844 109.097656 C 191.667969 108.832031 191.75 108.5625 191.828125 108.285156 C 196.113281 108.710938 200.128906 109.765625 203.984375 111.273438 C 209.910156 113.59375 215.421875 116.972656 220.789062 120.695312 C 226.152344 124.417969 231.359375 128.476562 236.667969 132.144531 C 238.5 133.414062 240.539062 134.65625 242.6875 135.589844 C 243.769531 136.054688 244.878906 136.441406 246.023438 136.722656 C 247.160156 137.003906 248.320312 137.148438 249.507812 137.148438 C 250.894531 137.148438 252.3125 136.921875 253.699219 136.429688 C 254.859375 136.015625 255.859375 135.375 256.714844 134.601562 C 257.984375 133.425781 258.902344 131.945312 259.542969 130.34375 C 260.183594 128.742188 260.558594 127.046875 260.71875 125.40625 C 260.824219 124.296875 260.890625 123.175781 260.890625 122.070312 C 260.839844 117.730469 260.011719 113.433594 258.4375 109.457031 Z M 119.5625 105.640625 C 120.667969 104.800781 122.03125 104.160156 123.683594 103.785156 C 124.234375 103.664062 124.804688 103.597656 125.378906 103.597656 C 126.273438 103.597656 127.167969 103.746094 127.984375 104.054688 C 128.796875 104.359375 129.53125 104.828125 130.117188 105.441406 C 130.597656 105.949219 130.984375 106.5625 131.238281 107.230469 C 131.507812 107.894531 131.640625 108.617188 131.640625 109.3125 C 131.640625 110.019531 131.507812 110.699219 131.210938 111.300781 C 130.933594 111.914062 130.503906 112.445312 129.90625 112.875 C 129.492188 113.167969 129.035156 113.394531 128.554688 113.527344 C 128.074219 113.675781 127.554688 113.742188 127.023438 113.742188 C 125.941406 113.742188 124.792969 113.449219 123.777344 112.941406 C 122.765625 112.433594 121.882812 111.714844 121.296875 110.898438 C 120.242188 109.429688 119.441406 107.828125 118.894531 106.160156 C 119.109375 106 119.320312 105.828125 119.5625 105.640625 Z M 139.394531 74.546875 C 139.445312 74.546875 139.488281 74.546875 139.539062 74.546875 C 140.835938 74.546875 142.183594 74.824219 143.332031 75.386719 C 143.902344 75.667969 144.4375 76.011719 144.890625 76.414062 C 145.34375 76.828125 145.734375 77.292969 146.027344 77.828125 C 146.371094 78.441406 146.558594 79.175781 146.558594 79.871094 C 146.558594 80.203125 146.519531 80.539062 146.425781 80.84375 C 146.332031 81.152344 146.1875 81.433594 146 81.671875 C 145.734375 82.019531 145.371094 82.285156 144.957031 82.5 C 144.542969 82.699219 144.0625 82.832031 143.582031 82.886719 C 143.398438 82.914062 143.222656 82.914062 143.035156 82.914062 C 142.222656 82.914062 141.394531 82.714844 140.660156 82.339844 C 139.925781 81.964844 139.273438 81.433594 138.792969 80.765625 C 138.378906 80.203125 138.097656 79.644531 137.910156 79.082031 C 137.726562 78.523438 137.644531 77.976562 137.644531 77.414062 C 137.644531 76.773438 137.75 76.132812 137.964844 75.480469 C 138.058594 75.1875 138.179688 74.890625 138.3125 74.585938 C 138.660156 74.570312 139.019531 74.546875 139.394531 74.546875 Z M 179.695312 63.375 C 180.65625 63.910156 181.550781 64.601562 182.257812 65.429688 C 182.605469 65.84375 182.914062 66.285156 183.152344 66.75 C 183.394531 67.21875 183.566406 67.699219 183.675781 68.21875 C 183.742188 68.539062 183.769531 68.875 183.769531 69.207031 C 183.769531 70.207031 183.472656 71.234375 182.941406 72.117188 C 182.417969 72.996094 181.660156 73.730469 180.765625 74.171875 C 180.03125 74.53125 179.214844 74.71875 178.375 74.71875 C 177.601562 74.71875 176.816406 74.558594 176.105469 74.265625 C 175.386719 73.972656 174.746094 73.53125 174.226562 72.972656 C 173.636719 72.332031 173.238281 71.714844 172.984375 71.140625 C 172.730469 70.570312 172.625 70.019531 172.625 69.488281 C 172.625 69.046875 172.703125 68.621094 172.835938 68.191406 C 173.089844 67.445312 173.558594 66.710938 174.183594 66.019531 C 175.121094 64.976562 176.402344 64.015625 177.761719 63.226562 C 178.027344 63.082031 178.296875 62.933594 178.550781 62.789062 C 178.949219 62.976562 179.324219 63.160156 179.695312 63.375 Z M 217.664062 72.503906 C 218.171875 73.664062 218.453125 74.8125 218.453125 75.921875 C 218.453125 76.800781 218.28125 77.65625 217.90625 78.496094 C 217.519531 79.335938 216.929688 80.164062 216.0625 80.976562 C 215.503906 81.5 214.851562 81.886719 214.15625 82.140625 C 213.460938 82.394531 212.726562 82.527344 212.007812 82.527344 C 211.351562 82.527344 210.710938 82.417969 210.125 82.21875 C 209.683594 82.074219 209.269531 81.871094 208.898438 81.617188 C 208.335938 81.246094 207.882812 80.765625 207.5625 80.175781 C 207.242188 79.589844 207.054688 78.894531 207.054688 78.070312 C 207.054688 77.773438 207.082031 77.453125 207.136719 77.121094 C 207.296875 76.148438 207.722656 75.226562 208.335938 74.425781 C 208.949219 73.625 209.75 72.945312 210.644531 72.449219 C 212.140625 71.636719 213.714844 71.035156 215.332031 70.660156 C 215.730469 70.570312 216.132812 70.488281 216.542969 70.410156 C 216.984375 71.117188 217.371094 71.808594 217.664062 72.503906 Z M 247.667969 99.847656 C 247.558594 100.863281 247.265625 101.890625 246.824219 102.863281 C 246.160156 104.320312 245.132812 105.628906 243.917969 106.546875 C 243.316406 107.015625 242.660156 107.390625 241.980469 107.644531 C 241.300781 107.894531 240.59375 108.03125 239.871094 108.03125 C 239.339844 108.03125 238.792969 107.949219 238.246094 107.789062 C 237.699219 107.628906 237.125 107.375 236.5625 107.027344 C 235.667969 106.46875 234.988281 105.722656 234.519531 104.855469 C 234.054688 103.984375 233.8125 103.011719 233.8125 102.023438 C 233.8125 101.035156 234.054688 100.035156 234.546875 99.113281 C 234.921875 98.421875 235.347656 97.832031 235.816406 97.351562 C 236.507812 96.632812 237.269531 96.140625 238.109375 95.820312 C 238.9375 95.5 239.832031 95.351562 240.78125 95.351562 C 241.621094 95.351562 242.5 95.472656 243.382812 95.699219 C 244.703125 96.03125 246.023438 96.605469 247.238281 97.3125 C 247.441406 97.433594 247.625 97.554688 247.8125 97.671875 C 247.785156 98.394531 247.734375 99.113281 247.667969 99.847656 Z M 189.121094 139.367188 C 189.121094 138.285156 189.28125 137.203125 189.613281 136.164062 C 189.960938 135.109375 190.480469 134.082031 191.242188 133.078125 C 191.734375 132.414062 192.320312 131.890625 192.960938 131.476562 C 193.9375 130.851562 195.070312 130.464844 196.3125 130.222656 C 197.566406 129.984375 198.929688 129.917969 200.316406 129.917969 C 201.382812 129.917969 202.476562 129.957031 203.546875 129.996094 C 204.625 130.035156 205.695312 130.089844 206.707031 130.089844 C 207.148438 130.089844 207.578125 130.078125 208.003906 130.0625 C 209.820312 129.984375 211.632812 129.597656 213.421875 129.25 C 215.210938 128.902344 216.957031 128.582031 218.613281 128.582031 C 219.695312 128.582031 220.722656 128.714844 221.722656 129.050781 C 223.84375 129.769531 225.875 130.851562 227.582031 132.265625 C 229.289062 133.679688 230.691406 135.402344 231.558594 137.417969 C 232.144531 138.765625 232.4375 140.273438 232.4375 141.769531 C 232.4375 143.207031 232.160156 144.648438 231.613281 145.945312 C 231.066406 147.238281 230.238281 148.375 229.144531 149.253906 C 228.183594 150.027344 227.0625 150.5625 225.847656 150.921875 C 224.644531 151.269531 223.351562 151.429688 222.070312 151.429688 C 221.894531 151.429688 221.710938 151.429688 221.535156 151.417969 C 219.761719 151.363281 218.050781 151.042969 216.359375 150.535156 C 213.835938 149.773438 211.378906 148.601562 208.949219 147.265625 C 206.523438 145.929688 204.132812 144.4375 201.71875 143.074219 C 198.808594 141.421875 195.683594 140.527344 192.480469 139.992188 C 191.359375 139.804688 190.226562 139.671875 189.09375 139.550781 C 189.121094 139.472656 189.121094 139.417969 189.121094 139.367188 Z M 147.5625 107.828125 C 149.054688 105.90625 150.789062 103.933594 152.671875 102.453125 C 153.621094 101.71875 154.59375 101.101562 155.59375 100.691406 C 156.597656 100.261719 157.625 100.035156 158.664062 100.035156 C 159.25 100.035156 159.851562 100.117188 160.464844 100.277344 C 160.933594 100.394531 161.332031 100.570312 161.640625 100.769531 C 162.121094 101.078125 162.441406 101.4375 162.65625 101.851562 C 162.867188 102.265625 162.976562 102.746094 162.976562 103.253906 C 162.976562 103.851562 162.828125 104.519531 162.535156 105.148438 C 162.242188 105.789062 161.8125 106.402344 161.292969 106.921875 C 160.785156 107.414062 160.160156 107.894531 159.410156 108.351562 C 158.304688 109.015625 156.984375 109.589844 155.59375 110.003906 C 154.207031 110.40625 152.738281 110.644531 151.351562 110.644531 C 150.109375 110.644531 148.921875 110.457031 147.90625 110.058594 C 147.402344 109.859375 146.921875 109.605469 146.492188 109.285156 C 146.480469 109.285156 146.480469 109.269531 146.464844 109.257812 C 146.828125 108.789062 147.1875 108.308594 147.5625 107.828125 Z M 199.234375 95.75 C 201.050781 93.976562 203.09375 92.480469 205.375 91.347656 C 207.644531 90.214844 210.136719 89.453125 212.820312 89.132812 C 213.527344 89.050781 214.261719 89 214.984375 89 C 216.023438 89 217.050781 89.09375 218.027344 89.320312 C 219 89.546875 219.933594 89.90625 220.789062 90.414062 C 221.75 90.988281 222.589844 91.828125 223.191406 92.789062 C 223.484375 93.269531 223.722656 93.777344 223.882812 94.296875 C 224.042969 94.816406 224.125 95.351562 224.125 95.886719 C 224.125 96.246094 224.085938 96.605469 224.003906 96.964844 C 223.816406 97.753906 223.457031 98.449219 222.964844 99.0625 C 222.589844 99.515625 222.136719 99.941406 221.628906 100.300781 C 220.867188 100.863281 219.960938 101.304688 219 101.652344 C 218.039062 101.996094 217.023438 102.238281 216.039062 102.371094 C 214.796875 102.542969 213.570312 102.625 212.328125 102.625 C 207.921875 102.625 203.546875 101.558594 199.355469 99.808594 C 198.460938 99.433594 197.566406 99.019531 196.6875 98.59375 C 197.472656 97.605469 198.328125 96.644531 199.234375 95.75 Z M 190.226562 108.671875 C 189.480469 111.3125 189.160156 114.046875 188.664062 116.679688 C 188.410156 117.984375 188.132812 119.28125 187.730469 120.507812 C 187.332031 121.734375 186.808594 122.921875 186.117188 124.03125 C 185.207031 125.484375 184.007812 126.742188 182.632812 127.808594 C 181.257812 128.875 179.710938 129.757812 178.097656 130.476562 C 175.613281 131.570312 172.878906 132.277344 170.222656 132.277344 C 168.5 132.277344 166.820312 131.984375 165.257812 131.332031 C 163.601562 130.636719 162.109375 129.410156 161.039062 127.929688 C 160.507812 127.179688 160.078125 126.378906 159.785156 125.550781 C 159.492188 124.726562 159.332031 123.859375 159.332031 123.003906 C 159.332031 122.363281 159.425781 121.722656 159.597656 121.09375 C 159.773438 120.496094 160.039062 119.921875 160.347656 119.375 C 160.828125 118.558594 161.453125 117.800781 162.160156 117.089844 C 162.867188 116.382812 163.667969 115.742188 164.484375 115.144531 C 167.765625 112.742188 171.464844 110.964844 175.375 109.792969 C 179.269531 108.617188 183.378906 108.03125 187.476562 108.042969 C 188.4375 108.042969 189.398438 108.070312 190.359375 108.136719 C 190.332031 108.308594 190.28125 108.484375 190.226562 108.671875 Z M 190.226562 108.671875 " fill-opacity="1" fill-rule="nonzero"/></g><g clip-path="url(#c99aa5acd7)"><g clip-path="url(#dfe1ed1e9a)"><g clip-path="url(#b5bfd2c396)"><path fill="#ffffff" d="M 187.941406 240.550781 C 187.628906 240.308594 187.503906 240.019531 187.582031 239.707031 C 187.65625 239.398438 188.042969 239.113281 188.308594 239.167969 C 188.417969 239.191406 189.410156 239.644531 190.511719 240.179688 C 192.378906 241.082031 192.554688 241.152344 193.226562 241.269531 C 193.617188 241.335938 193.925781 241.351562 193.910156 241.296875 C 193.707031 241.101562 193.484375 240.929688 193.242188 240.789062 C 192.757812 240.46875 192.226562 240.214844 191.003906 239.714844 C 190.125 239.351562 188.945312 238.832031 188.382812 238.554688 C 187.421875 238.082031 187.34375 238.027344 187.039062 237.636719 C 186.605469 237.074219 186.53125 236.589844 186.796875 236.046875 C 187.039062 235.554688 187.382812 235.273438 188 235.0625 C 188.613281 234.851562 189.269531 234.847656 190.28125 235.050781 C 191.078125 235.210938 191.199219 235.261719 194.339844 236.746094 C 197.605469 238.289062 198.011719 238.441406 198.132812 238.195312 C 198.214844 238.035156 198.117188 237.882812 197.632812 237.402344 C 197.191406 236.964844 197.171875 236.957031 193.445312 235.125 C 189.484375 233.175781 189.253906 233.039062 188.675781 232.328125 C 187.726562 231.148438 188.089844 229.695312 189.453125 229.230469 C 190.789062 228.773438 192.730469 229.304688 197.46875 231.421875 C 199.648438 232.398438 200.292969 232.636719 201.171875 232.804688 C 201.707031 232.90625 202.382812 232.789062 202.488281 232.582031 C 202.785156 231.972656 201.140625 230.9375 198.71875 230.203125 C 195.160156 229.125 193.457031 228.355469 190.816406 226.617188 C 189.320312 225.632812 189.179688 225.523438 189.105469 225.277344 C 189.003906 224.941406 189.128906 224.683594 189.46875 224.535156 C 189.851562 224.375 190.1875 224.515625 191.636719 225.453125 C 193.816406 226.863281 195.996094 227.820312 198.960938 228.671875 C 200.105469 229 202.191406 229.917969 202.769531 230.351562 C 203.652344 231.011719 204.15625 231.90625 204.054688 232.636719 C 203.996094 232.90625 203.898438 233.15625 203.757812 233.394531 C 203.210938 234.332031 202.023438 234.601562 200.300781 234.179688 C 199.746094 234.042969 198.476562 233.523438 195.28125 232.128906 C 193.046875 231.152344 191.378906 230.636719 190.484375 230.644531 C 189.980469 230.648438 189.847656 230.683594 189.746094 230.839844 C 189.644531 231.003906 189.660156 231.082031 189.847656 231.332031 C 190.230469 231.84375 191.128906 232.351562 194.632812 234.046875 C 197.867188 235.609375 197.945312 235.648438 198.480469 236.125 C 198.761719 236.367188 199.023438 236.632812 199.265625 236.917969 C 199.945312 237.8125 199.886719 238.828125 199.121094 239.425781 C 198.753906 239.710938 198.25 239.828125 197.601562 239.78125 C 197.167969 239.75 196.9375 239.652344 193.9375 238.230469 C 190.945312 236.8125 190.691406 236.703125 189.960938 236.546875 C 189.1875 236.378906 188.671875 236.382812 188.390625 236.558594 C 188.308594 236.609375 188.257812 236.6875 188.277344 236.738281 C 188.324219 236.871094 189.726562 237.539062 191.484375 238.261719 C 193.226562 238.976562 194.164062 239.488281 194.914062 240.128906 C 195.945312 241.007812 196.128906 241.910156 195.398438 242.546875 C 194.9375 242.953125 194.195312 243.011719 192.882812 242.75 C 192.039062 242.582031 191.902344 242.53125 190.09375 241.660156 C 189.050781 241.160156 188.082031 240.660156 187.941406 240.550781 Z M 191.863281 224.488281 C 190.492188 223.535156 189.832031 222.703125 189.335938 221.296875 C 188.996094 220.335938 188.835938 219.34375 188.855469 218.324219 C 188.847656 217.0625 189.046875 215.957031 189.707031 213.582031 C 190.007812 212.488281 190.3125 211.347656 190.378906 211.042969 C 190.691406 209.59375 190.742188 208.132812 190.535156 206.660156 C 190.382812 205.707031 189.605469 199.902344 189.574219 199.503906 C 189.523438 198.882812 189.328125 196.953125 189.164062 195.445312 C 188.984375 193.820312 188.902344 189.832031 189.019531 188.429688 C 189.195312 186.328125 189.605469 184.78125 190.433594 183.097656 C 191.675781 180.570312 193.382812 178.367188 195.710938 176.292969 C 199.148438 173.222656 202.972656 171.136719 206.152344 170.601562 C 207.746094 170.363281 209.328125 170.433594 210.894531 170.816406 C 212.839844 171.324219 214.269531 171.851562 217.253906 173.160156 C 220.519531 174.597656 222.996094 175.980469 225.097656 177.550781 C 227.121094 179.0625 228.042969 179.875 229.320312 181.277344 C 231.46875 183.632812 233.222656 187.148438 233.984375 190.632812 C 234.582031 193.371094 234.527344 195.90625 233.8125 198.71875 C 233.585938 199.613281 233.417969 200.058594 232.855469 201.277344 C 232.507812 202.046875 232.117188 202.796875 231.6875 203.527344 C 230.90625 204.773438 229.484375 206.382812 228.125 207.5625 C 227.082031 208.46875 224.082031 210.714844 222.671875 211.644531 C 221.074219 212.695312 217.8125 214.941406 217.164062 215.4375 C 215.246094 216.890625 213.464844 218.617188 212.230469 220.222656 C 211.382812 221.324219 210.714844 222.414062 209.550781 224.589844 C 208.378906 226.785156 207.777344 227.515625 206.707031 228.050781 C 205.160156 228.828125 202.894531 228.632812 200.0625 227.484375 C 199.160156 227.117188 198.234375 226.835938 197.285156 226.640625 C 196.273438 226.4375 195.292969 226.140625 194.339844 225.75 C 193.144531 225.285156 192.652344 225.035156 191.863281 224.488281 Z M 195.382812 223.148438 C 196.261719 221.355469 196.984375 219.601562 198.027344 216.722656 C 201.1875 208.023438 202.992188 202.023438 204.335938 195.742188 C 204.488281 195.019531 204.644531 194.25 204.679688 194.039062 L 204.746094 193.652344 L 204.300781 193.320312 C 203.347656 192.605469 202.910156 191.960938 202.539062 190.71875 C 202.101562 189.160156 202.230469 187.648438 202.925781 186.1875 C 203.332031 185.367188 203.695312 185.019531 204.195312 184.976562 C 204.914062 184.910156 205.78125 185.660156 206.183594 186.699219 C 206.566406 187.683594 206.707031 189.425781 206.566406 191.394531 C 206.523438 191.964844 206.53125 192.457031 206.578125 192.480469 C 206.851562 192.613281 208.425781 192.003906 208.570312 191.710938 C 208.621094 191.472656 208.648438 191.234375 208.644531 190.992188 C 208.667969 190.503906 208.726562 190.019531 208.820312 189.542969 C 208.960938 188.808594 209.054688 188.535156 209.480469 187.660156 C 209.933594 186.738281 210.011719 186.617188 210.3125 186.398438 C 210.886719 185.988281 211.621094 186.074219 212.011719 186.601562 C 212.324219 187.027344 212.492188 187.898438 212.390625 188.5625 C 212.261719 189.402344 211.652344 190.636719 210.894531 191.59375 L 210.359375 192.269531 L 210.523438 192.652344 C 210.90625 193.546875 211.707031 194.359375 212.453125 194.617188 C 212.625 194.691406 212.808594 194.722656 212.992188 194.707031 C 213.171875 194.546875 213.328125 194.367188 213.460938 194.167969 C 214.242188 193.082031 215.894531 191.289062 216.566406 190.796875 C 217.050781 190.441406 217.179688 190.386719 217.644531 190.320312 C 218.441406 190.210938 219.21875 190.835938 219.347656 191.695312 C 219.402344 192.054688 219.375 192.175781 219.074219 192.84375 C 218.773438 193.519531 218.683594 193.648438 218.148438 194.183594 C 216.894531 195.441406 215.472656 196.183594 214.101562 196.289062 C 213.90625 196.304688 213.742188 196.390625 213.617188 196.542969 C 213.277344 196.941406 211.253906 200.035156 210.410156 201.449219 C 209.96875 202.1875 209.363281 203.199219 209.0625 203.695312 C 208.210938 205.09375 205.457031 210.589844 204.558594 212.667969 C 202.128906 218.304688 200.53125 222.875 200.214844 225.097656 C 200.167969 225.347656 200.148438 225.597656 200.167969 225.851562 C 200.230469 225.953125 201.6875 226.484375 202.511719 226.703125 C 203.925781 227.082031 205.3125 227.078125 206.03125 226.699219 C 206.703125 226.34375 207.128906 225.8125 207.992188 224.246094 C 210.542969 219.640625 211.507812 218.332031 214.023438 216.074219 C 215.492188 214.757812 216.78125 213.796875 220.128906 211.527344 C 225.503906 207.882812 227.5625 206.238281 229.269531 204.230469 C 230.089844 203.277344 230.765625 202.234375 231.292969 201.09375 C 232.949219 197.71875 233.304688 194.042969 232.332031 190.28125 C 231.832031 188.34375 231.128906 186.675781 229.984375 184.710938 C 229.078125 183.160156 227.597656 181.492188 225.90625 180.101562 C 224.640625 179.082031 223.324219 178.132812 221.960938 177.25 C 220.777344 176.523438 216.671875 174.507812 214.886719 173.777344 C 213.433594 173.195312 211.953125 172.691406 210.441406 172.269531 C 209.285156 172 208.113281 171.921875 206.929688 172.027344 C 204.730469 172.285156 201.949219 173.492188 199.445312 175.269531 C 196.203125 177.574219 194.058594 179.835938 192.269531 182.835938 C 191.285156 184.527344 190.71875 186.347656 190.5625 188.296875 C 190.425781 189.851562 190.527344 193.839844 190.753906 196.019531 C 190.875 197.191406 191.023438 198.613281 191.085938 199.1875 C 191.179688 200.109375 191.667969 203.820312 192.066406 206.652344 C 192.378906 208.851562 192.191406 210.390625 191.164062 214.054688 C 190.570312 216.167969 190.355469 217.316406 190.367188 218.292969 C 190.382812 219.75 190.722656 221.042969 191.324219 221.925781 C 191.558594 222.277344 192.292969 222.9375 192.992188 223.433594 C 193.085938 223.5 193.53125 223.742188 193.972656 223.96875 L 194.78125 224.378906 Z M 197.007812 225.128906 C 197.273438 225.210938 197.542969 225.253906 197.820312 225.261719 C 197.984375 225.246094 198.140625 225.261719 198.296875 225.3125 C 198.5 225.367188 198.617188 225.359375 198.621094 225.289062 C 198.804688 223.273438 200.746094 217.597656 203.0625 212.296875 C 204.980469 207.90625 207.777344 202.632812 210.074219 199.074219 C 210.421875 198.535156 211.691406 196.625 211.863281 196.378906 L 212.015625 196.164062 L 211.375 195.792969 C 211.023438 195.589844 210.691406 195.355469 210.378906 195.09375 C 209.925781 194.628906 209.546875 194.105469 209.242188 193.527344 L 209.113281 193.257812 L 208.78125 193.421875 C 208.1875 193.738281 207.558594 193.933594 206.886719 194 C 206.566406 194.019531 206.285156 194.074219 206.261719 194.121094 C 206.234375 194.171875 206.078125 194.875 205.910156 195.6875 C 205.621094 197.070312 205.449219 197.808594 204.75 200.644531 C 203.734375 204.765625 201.824219 210.773438 199.449219 217.285156 C 198.859375 218.90625 198.515625 219.707031 197.410156 222.03125 C 196.164062 224.65625 196.089844 224.832031 196.214844 224.894531 C 196.476562 224.988281 196.738281 225.066406 197.003906 225.132812 Z M 205.078125 190.894531 C 205.113281 190.300781 205.117188 189.707031 205.089844 189.113281 C 205.039062 188.21875 204.640625 186.734375 204.445312 186.707031 C 204.363281 186.699219 204.28125 186.808594 204.171875 187.066406 C 203.730469 188.179688 203.691406 189.308594 204.050781 190.449219 C 204.273438 191.097656 204.765625 191.871094 204.941406 191.855469 C 204.984375 191.851562 205.046875 191.417969 205.078125 190.894531 Z M 215.703125 194.191406 C 216.460938 193.78125 217.695312 192.550781 217.785156 192.113281 C 217.828125 191.902344 217.667969 191.8125 217.507812 191.957031 C 216.636719 192.746094 215.265625 194.253906 215.371094 194.308594 C 215.40625 194.324219 215.554688 194.273438 215.703125 194.191406 Z M 210.835938 188.445312 C 210.828125 188.296875 210.8125 188.296875 210.730469 188.460938 C 210.65625 188.628906 210.59375 188.804688 210.542969 188.980469 L 210.449219 189.3125 L 210.648438 188.964844 C 210.75 188.804688 210.8125 188.632812 210.835938 188.445312 Z M 178.441406 204.121094 C 178.339844 203.992188 178.292969 203.847656 178.300781 203.679688 C 178.3125 203.515625 178.375 203.375 178.496094 203.261719 C 178.832031 202.929688 180.789062 202.757812 183.246094 202.847656 C 184.058594 202.878906 185.167969 202.90625 185.710938 202.914062 C 186.453125 202.925781 186.738281 202.960938 186.855469 203.070312 C 187.128906 203.328125 187.167969 203.554688 187 203.898438 C 186.867188 204.171875 186.785156 204.234375 186.441406 204.328125 C 186.058594 204.429688 185.179688 204.441406 184.191406 204.359375 C 182.476562 204.214844 180.800781 204.199219 179.910156 204.324219 C 179.363281 204.402344 178.777344 204.410156 178.644531 204.339844 C 178.566406 204.277344 178.5 204.203125 178.441406 204.121094 Z M 222.351562 223.09375 C 221.347656 222.074219 220.582031 220.902344 220.0625 219.566406 C 219.769531 218.777344 219.742188 218.472656 219.921875 218.097656 C 219.996094 217.914062 220.132812 217.804688 220.328125 217.777344 C 220.800781 217.675781 220.933594 217.816406 221.257812 218.773438 C 221.457031 219.328125 221.703125 219.855469 222.007812 220.363281 C 222.40625 221 222.667969 221.3125 223.675781 222.367188 C 224.050781 222.753906 224.148438 223.070312 224 223.375 C 223.734375 223.914062 223.082031 223.800781 222.355469 223.09375 Z M 231.492188 216.910156 C 231.433594 216.867188 230.832031 216.421875 230.152344 215.925781 C 228.777344 214.917969 227.621094 213.941406 227.433594 213.621094 C 227.351562 213.472656 227.332031 213.316406 227.375 213.152344 C 227.417969 212.988281 227.511719 212.859375 227.652344 212.769531 C 228.03125 212.546875 228.253906 212.625 228.964844 213.226562 C 229.316406 213.527344 230.183594 214.1875 230.890625 214.691406 C 232.296875 215.699219 232.683594 216.050781 232.734375 216.382812 C 232.839844 217.058594 232.085938 217.378906 231.492188 216.910156 Z M 179.839844 189.253906 C 179.171875 188.828125 179.011719 188.550781 179.183594 188.117188 C 179.277344 187.890625 179.363281 187.792969 179.527344 187.746094 C 179.722656 187.691406 179.964844 187.789062 182.128906 188.8125 C 183.441406 189.4375 184.679688 190.027344 184.886719 190.125 C 185.3125 190.332031 185.519531 190.644531 185.46875 191.011719 C 185.433594 191.171875 185.351562 191.308594 185.222656 191.410156 C 185.089844 191.515625 184.941406 191.566406 184.773438 191.5625 C 184.464844 191.558594 180.652344 189.777344 179.839844 189.253906 Z M 236.550781 205.457031 C 235.476562 204.859375 234.996094 204.539062 234.816406 204.304688 C 234.4375 203.800781 234.515625 203.316406 235.007812 203.148438 C 235.316406 203.042969 235.4375 203.085938 235.910156 203.457031 C 236.089844 203.597656 237.191406 204.214844 238.363281 204.828125 C 240.246094 205.816406 240.507812 205.972656 240.628906 206.1875 C 240.765625 206.390625 240.777344 206.605469 240.664062 206.824219 C 240.550781 207.042969 240.375 207.15625 240.128906 207.167969 C 239.824219 207.171875 238.476562 206.527344 236.550781 205.457031 Z M 191.640625 173.988281 C 191.441406 173.765625 191.261719 173.53125 191.089844 173.289062 C 190.140625 171.925781 189.195312 170.648438 188.75 170.121094 C 188.148438 169.414062 188.015625 169.054688 188.246094 168.746094 C 188.34375 168.613281 188.472656 168.527344 188.632812 168.488281 C 188.792969 168.449219 188.945312 168.46875 189.09375 168.546875 C 189.382812 168.761719 189.640625 169.003906 189.871094 169.285156 C 190.625 170.148438 192.753906 173.050781 192.863281 173.363281 C 192.914062 173.539062 192.902344 173.707031 192.824219 173.875 C 192.75 174.039062 192.628906 174.160156 192.460938 174.234375 C 192.367188 174.273438 192.269531 174.289062 192.164062 174.277344 C 192.105469 174.253906 192.042969 174.238281 191.980469 174.230469 C 191.847656 174.175781 191.734375 174.09375 191.640625 173.988281 Z M 238.21875 195.378906 C 237.851562 194.972656 237.921875 194.453125 238.371094 194.25 C 238.554688 194.164062 238.675781 194.195312 239.3125 194.480469 C 240.316406 194.898438 241.359375 195.152344 242.441406 195.242188 C 243.355469 195.328125 243.644531 195.441406 243.753906 195.761719 C 243.820312 196.085938 243.722656 196.347656 243.460938 196.550781 C 242.804688 197.023438 238.917969 196.152344 238.21875 195.378906 Z M 234.316406 182.347656 C 234.171875 182.085938 234.273438 181.714844 234.5625 181.46875 C 234.691406 181.359375 235.191406 181.140625 235.675781 180.984375 C 236.855469 180.597656 239.714844 179.820312 240.183594 179.757812 C 240.894531 179.664062 241.300781 180.109375 241.023438 180.671875 C 240.921875 180.886719 240.773438 180.972656 240.136719 181.191406 C 239.714844 181.339844 238.746094 181.613281 237.984375 181.796875 C 237.222656 181.984375 236.203125 182.273438 235.71875 182.441406 C 234.785156 182.765625 234.539062 182.75 234.316406 182.347656 Z M 202.441406 165.730469 C 202.261719 165.488281 200.335938 162.082031 199.820312 161.089844 C 199.601562 160.664062 199.601562 160.339844 199.824219 160.074219 C 200.007812 159.855469 200.472656 159.835938 200.710938 160.039062 C 200.953125 160.242188 203.769531 165.105469 203.777344 165.332031 C 203.789062 165.683594 203.542969 166.035156 203.246094 166.101562 C 202.90625 166.171875 202.703125 166.078125 202.441406 165.726562 Z M 226.585938 174.660156 C 226.359375 174.1875 226.613281 173.800781 227.832031 172.738281 C 228.71875 171.964844 230.722656 170.515625 231.074219 170.390625 C 231.5 170.238281 231.863281 170.390625 231.980469 170.765625 C 232.09375 171.128906 231.90625 171.429688 231.300781 171.871094 C 230.140625 172.710938 228.574219 173.929688 228.136719 174.335938 C 227.476562 174.949219 227.382812 175.015625 227.128906 175.007812 C 226.8125 174.996094 226.71875 174.9375 226.585938 174.660156 Z M 217.523438 167.929688 C 217.261719 167.574219 217.3125 167.363281 217.964844 166.152344 C 218.640625 164.902344 219.785156 163.160156 220.230469 162.707031 C 220.617188 162.3125 220.859375 162.25 221.203125 162.457031 C 221.386719 162.546875 221.496094 162.699219 221.527344 162.902344 L 221.578125 163.1875 L 220.714844 164.429688 C 219.746094 165.820312 219.074219 166.886719 218.730469 167.574219 C 218.570312 167.902344 218.441406 168.066406 218.292969 168.128906 C 218.15625 168.1875 218.019531 168.199219 217.875 168.164062 C 217.730469 168.125 217.613281 168.046875 217.523438 167.929688 Z M 217.523438 167.929688 " fill-opacity="1" fill-rule="nonzero"/></g></g></g><g fill="#ffffff" fill-opacity="1"><g transform="translate(122.267574, 295.803761)"><g><path d="M 34.25 0 L 26.828125 0 L 24.140625 -8.234375 L 10.46875 -8.234375 L 7.78125 0 L 0.53125 0 L 12.859375 -35.6875 L 21.921875 -35.6875 Z M 16.96875 -28.25 L 12.375 -14.15625 L 22.1875 -14.15625 L 17.578125 -28.25 Z M 16.96875 -28.25 "/></g></g></g><g fill="#ffffff" fill-opacity="1"><g transform="translate(157.052175, 295.803761)"><g><path d="M 11.6875 0 L 4.640625 0 L 4.640625 -35.6875 L 11.6875 -35.6875 Z M 11.6875 0 "/></g></g></g><g fill="#ffffff" fill-opacity="1"><g transform="translate(173.40704, 295.803761)"><g><path d="M 11.6875 0 L 4.640625 0 L 4.640625 -35.6875 L 11.6875 -35.6875 Z M 11.6875 0 "/></g></g></g><g fill="#ffffff" fill-opacity="1"><g transform="translate(189.761905, 295.803761)"><g><path d="M 28.609375 -35.6875 L 28.609375 -29.765625 L 18.3125 -29.765625 L 18.3125 0 L 11.28125 0 L 11.28125 -29.765625 L 0.984375 -29.765625 L 0.984375 -35.6875 Z M 28.609375 -35.6875 "/></g></g></g><g fill="#ffffff" fill-opacity="1"><g transform="translate(219.347123, 295.803761)"><g><path d="M 4.640625 0 L 4.640625 -35.6875 L 18.96875 -35.6875 C 22.664062 -35.6875 25.453125 -34.835938 27.328125 -33.140625 C 29.210938 -31.441406 30.15625 -29.09375 30.15625 -26.09375 C 30.15625 -23.9375 29.601562 -22.164062 28.5 -20.78125 C 27.40625 -19.394531 25.765625 -18.335938 23.578125 -17.609375 L 23.578125 -17.09375 C 24.703125 -16.601562 25.609375 -15.878906 26.296875 -14.921875 C 26.992188 -13.960938 27.648438 -12.535156 28.265625 -10.640625 L 31.84375 0 L 24.578125 0 L 21.09375 -10.671875 C 20.738281 -11.742188 20.335938 -12.578125 19.890625 -13.171875 C 19.441406 -13.765625 18.867188 -14.195312 18.171875 -14.46875 C 17.484375 -14.738281 16.585938 -14.875 15.484375 -14.875 L 11.6875 -14.875 L 11.6875 0 Z M 18.109375 -20.453125 C 21.535156 -20.453125 23.25 -22.050781 23.25 -25.25 C 23.25 -28.488281 21.535156 -30.109375 18.109375 -30.109375 L 11.6875 -30.109375 L 11.6875 -20.453125 Z M 18.109375 -20.453125 "/></g></g></g></svg>